<svg width="142" height="301" viewBox="0 0 142 301" fill="none" xmlns="http://www.w3.org/2000/svg">
<g clip-path="url(#clip0_1864_6775)">
<path d="M46.6697 63.2444C47.8 60.8873 50.4782 58.0702 52.6218 56.9868C58.34 54.0949 60.5709 54.4659 68.7787 59.6713C101.699 80.5488 120.888 122.025 116.359 162.509C112.806 194.268 92.7256 226.523 67.1932 241.486C58.4849 246.59 51.9312 245.344 47.4898 237.741C43.0499 230.138 45.7297 224.096 57.2659 215.693C78.3958 200.308 90.0364 176.993 90.0364 150.066C90.0364 122.987 77.5415 98.2195 56.6064 83.8007C46.5092 76.8462 43.3149 70.2394 46.6697 63.2444Z" fill="black"/>
<path d="M23.4942 108.033C23.4942 102.671 26.1475 98.1376 30.2527 96.4821C32.1354 95.7234 33.874 95.0571 34.1167 95.0022C34.3595 94.9489 36.8452 95.8598 39.641 97.0293C47.5116 100.32 58.842 112.739 64.5355 124.315C69.3862 134.178 69.6995 141.79 69.6995 151.341C69.6995 166.825 69.3784 168.522 64.5981 178.238C53.5214 200.761 34.4159 213.093 26.2477 202.995C21.2623 196.834 22.6719 191.413 31.1126 184.291C53.3757 165.502 53.3757 137.18 31.1126 118.391C25.734 113.852 23.4942 110.806 23.4942 108.033Z" fill="black"/>
<path d="M0 151.341C0 146.233 0.988333 143.841 4.57825 140.246C8.16973 136.653 10.5599 135.664 15.6628 135.664C20.7658 135.664 23.1559 136.653 26.7474 140.246C30.3373 143.841 31.3256 146.233 31.3256 151.341C31.3256 165.624 14.6682 172.533 4.57825 162.436C0.988333 158.841 0 156.449 0 151.341Z" fill="black"/>
</g>
<defs>
<clipPath id="clip0_1864_6775">
<rect width="142" height="301" fill="white"/>
</clipPath>
</defs>
</svg>
