<svg width="238" height="301" viewBox="0 0 238 301" fill="none" xmlns="http://www.w3.org/2000/svg">
<g clip-path="url(#clip0_1864_6775)">
<path d="M129.437 120.714V107.388V94.0625H168.594H207.751V107.388V120.714H168.594H129.437Z" fill="black"/>
<path d="M129.437 206.938V172.448V137.958H168.594H207.751V151.284V164.609H185.823H163.895V185.773V206.938H146.666H129.437Z" fill="black"/>
<path fill-rule="evenodd" clip-rule="evenodd" d="M133.784 38.6232C111.866 43.4253 93.5073 53.5784 77.2287 69.8971C51.4612 95.7294 40.2805 131.682 47.295 166.15C50.6695 182.729 54.498 191.945 64.0527 206.483L71.5825 217.94L63.539 238.126C56.6141 255.503 55.7438 258.851 57.2755 262.197C60.7301 269.744 65.4399 269.035 89.5374 257.353L111.791 246.563L122.787 250.448C133.354 254.18 135.569 254.354 179.343 254.895C209.203 255.264 226.416 254.882 229.298 253.788C238.505 250.291 239.929 234.446 231.44 229.924C229.17 228.715 216.954 228.257 193.308 228.495C148.742 228.944 136.202 227.366 119.352 219.191C90.2318 205.066 73.3012 178.027 73.3012 145.649C73.3012 128.958 77.1108 115.638 85.5973 102.653C96.6084 85.8046 111.519 74.3286 131.428 67.3827C140.947 64.0614 144.514 63.7924 184.056 63.425C207.385 63.2076 228.11 62.6212 230.111 62.1224C232.327 61.572 234.639 59.0982 236.023 55.7988C238.012 51.0624 238.009 49.6941 235.996 44.8998C234.634 41.6567 232.017 38.7811 229.588 37.8632C223.306 35.4848 145.279 36.1041 133.784 38.6232Z" fill="#FFDF00"/>
<path fill-rule="evenodd" clip-rule="evenodd" d="M133.784 38.6232C111.866 43.4253 93.5073 53.5784 77.2287 69.8971C51.4612 95.7294 40.2805 131.682 47.295 166.15C50.6695 182.729 54.498 191.945 64.0527 206.483L71.5825 217.94L63.539 238.126C56.6141 255.503 55.7438 258.851 57.2755 262.197C60.7301 269.744 65.4399 269.035 89.5374 257.353L111.791 246.563L122.787 250.448C133.354 254.18 135.569 254.354 179.343 254.895C209.203 255.264 226.416 254.882 229.298 253.788C238.505 250.291 239.929 234.446 231.44 229.924C229.17 228.715 216.954 228.257 193.308 228.495C148.742 228.944 136.202 227.366 119.352 219.191C90.2318 205.066 73.3012 178.027 73.3012 145.649C73.3012 128.958 77.1108 115.638 85.5973 102.653C96.6084 85.8046 111.519 74.3286 131.428 67.3827C140.947 64.0614 144.514 63.7924 184.056 63.425C207.385 63.2076 228.11 62.6212 230.111 62.1224C232.327 61.572 234.639 59.0982 236.023 55.7988C238.012 51.0624 238.009 49.6941 235.996 44.8998C234.634 41.6567 232.017 38.7811 229.588 37.8632C223.306 35.4848 145.279 36.1041 133.784 38.6232Z" fill="#FFDF00"/>
</g>
<defs>
<clipPath id="clip0_1864_6775">
<rect width="238" height="301" fill="white"/>
</clipPath>
</defs>
</svg>
